<svg xmlns="http://www.w3.org/2000/svg" viewBox="0 0 960 300" width="960" height="300">
<rect width="960" height="300" fill="#ffffff"/>
<line x1="50" y1="232" x2="910" y2="232" stroke="#7A719A" stroke-width="4" stroke-linecap="round"/>
<path d="M 902 224 l 12 8 l -12 8" fill="none" stroke="#7A719A" stroke-width="4" stroke-linecap="round" stroke-linejoin="round"/>
<circle cx="140" cy="132" r="56" fill="#ffffff" stroke="#DCD2EE" stroke-width="3"/>
<line x1="140" y1="222" x2="140" y2="242" stroke="#7A719A" stroke-width="4" stroke-linecap="round"/>
<circle cx="140" cy="132" r="30" fill="none" stroke="#6B4BA8" stroke-width="3.5"/>
<circle cx="140" cy="132" r="10" fill="#6B4BA8" opacity=".55"/>
<circle cx="140" cy="70" r="16" fill="#6B4BA8" stroke="#fff" stroke-width="2.5"/><text x="140" y="77" text-anchor="middle" font-family="sans-serif" font-size="20" font-weight="700" fill="#ffffff">1</text>
<circle cx="355" cy="132" r="56" fill="#ffffff" stroke="#DCD2EE" stroke-width="3"/>
<line x1="355" y1="222" x2="355" y2="242" stroke="#7A719A" stroke-width="4" stroke-linecap="round"/>
<circle cx="339" cy="118" r="12" fill="none" stroke="#6B4BA8" stroke-width="2.6"/>
<circle cx="369" cy="116" r="12" fill="none" stroke="#6B4BA8" stroke-width="2.6"/>
<circle cx="337" cy="144" r="12" fill="none" stroke="#6B4BA8" stroke-width="2.6"/>
<circle cx="367" cy="146" r="12" fill="none" stroke="#6B4BA8" stroke-width="2.6"/>
<circle cx="355" cy="131" r="12" fill="none" stroke="#6B4BA8" stroke-width="2.6"/>
<circle cx="353" cy="160" r="12" fill="none" stroke="#6B4BA8" stroke-width="2.6"/>
<circle cx="381" cy="134" r="12" fill="none" stroke="#6B4BA8" stroke-width="2.6"/>
<circle cx="355" cy="70" r="16" fill="#6B4BA8" stroke="#fff" stroke-width="2.5"/><text x="355" y="77" text-anchor="middle" font-family="sans-serif" font-size="20" font-weight="700" fill="#ffffff">2</text>
<circle cx="570" cy="132" r="56" fill="#ffffff" stroke="#DCD2EE" stroke-width="3"/>
<line x1="570" y1="222" x2="570" y2="242" stroke="#7A719A" stroke-width="4" stroke-linecap="round"/>
<circle cx="570" cy="132" r="30" fill="#ffffff"/>
<circle cx="570" cy="132" r="34" fill="none" stroke="#6B4BA8" stroke-width="3.5"/>
<circle cx="604.000000" cy="132.000000" r="6" fill="#6B4BA8" opacity=".45"/>
<circle cx="596.045511" cy="153.854779" r="6" fill="#6B4BA8" opacity=".45"/>
<circle cx="575.904038" cy="165.483464" r="6" fill="#6B4BA8" opacity=".45"/>
<circle cx="553.000000" cy="161.444864" r="6" fill="#6B4BA8" opacity=".45"/>
<circle cx="538.050451" cy="143.628685" r="6" fill="#6B4BA8" opacity=".45"/>
<circle cx="538.050451" cy="120.371315" r="6" fill="#6B4BA8" opacity=".45"/>
<circle cx="553.000000" cy="102.555136" r="6" fill="#6B4BA8" opacity=".45"/>
<circle cx="575.904038" cy="98.516536" r="6" fill="#6B4BA8" opacity=".45"/>
<circle cx="596.045511" cy="110.145221" r="6" fill="#6B4BA8" opacity=".45"/>
<circle cx="558" cy="120" r="13" fill="#6B4BA8" opacity=".65"/>
<circle cx="570" cy="70" r="16" fill="#6B4BA8" stroke="#fff" stroke-width="2.5"/><text x="570" y="77" text-anchor="middle" font-family="sans-serif" font-size="20" font-weight="700" fill="#ffffff">3</text>
<circle cx="800" cy="132" r="56" fill="#ffffff" stroke="#DCD2EE" stroke-width="3"/>
<line x1="800" y1="222" x2="800" y2="242" stroke="#7A719A" stroke-width="4" stroke-linecap="round"/>
<path d="M 778 120 c 20 -20 46 -8 46 18 c 0 22 -18 34 -36 32 c -14 -2 -22 -12 -22 -24 c 0 -12 6 -20 12 -26 z" fill="none" stroke="#6B4BA8" stroke-width="4" stroke-linejoin="round"/>
<circle cx="806" cy="128" r="7" fill="#6B4BA8" opacity=".45"/>
<path d="M 790 134 c 10 6 16 16 16 28" fill="none" stroke="#6B4BA8" stroke-width="3" stroke-linecap="round" opacity=".8"/>
<path d="M 780 152 l 14 10" fill="none" stroke="#6B4BA8" stroke-width="3" stroke-linecap="round" opacity=".8"/>
<circle cx="800" cy="70" r="16" fill="#6B4BA8" stroke="#fff" stroke-width="2.5"/><text x="800" y="77" text-anchor="middle" font-family="sans-serif" font-size="20" font-weight="700" fill="#ffffff">4</text>
</svg>