<svg xmlns="http://www.w3.org/2000/svg" viewBox="0 0 760 400" width="760" height="400"><defs><marker id="ar" viewBox="0 0 10 10" refX="9" refY="5" markerWidth="7" markerHeight="7" orient="auto-start-reverse"><path d="M 0 0 L 10 5 L 0 10 z" fill="#7A5C44"/></marker><marker id="arw" viewBox="0 0 10 10" refX="9" refY="5" markerWidth="6" markerHeight="6" orient="auto-start-reverse"><path d="M 0 0 L 10 5 L 0 10 z" fill="#fff"/></marker></defs><rect x="0" y="0" width="760" height="400" fill="#FFFFFF"/><rect x="20" y="20" width="500" height="360" rx="10" fill="#F6EFE6" stroke="#CDB79C" stroke-width="1.8"/><clipPath id="terra"><rect x="34" y="150" width="472" height="216" rx="4"/></clipPath><g clip-path="url(#terra)"><rect x="34" y="150" width="472" height="216" fill="#8C6A4E"/><circle cx="262" cy="268" r="40" fill="none" stroke="#FFF1E2" stroke-width="2.2" stroke-dasharray="7 6"/><circle cx="262" cy="268" r="76" fill="none" stroke="#FFF1E2" stroke-width="2.2" stroke-dasharray="7 6"/><circle cx="262" cy="268" r="112" fill="none" stroke="#FFF1E2" stroke-width="2.2" stroke-dasharray="7 6"/><circle cx="262" cy="268" r="148" fill="none" stroke="#FFF1E2" stroke-width="2.2" stroke-dasharray="7 6"/><circle cx="262" cy="268" r="184" fill="none" stroke="#FFF1E2" stroke-width="2.2" stroke-dasharray="7 6"/><line x1="186" y1="150" x2="336" y2="366" stroke="#fff" stroke-width="4"/><line x1="262" y1="268" x2="262" y2="150" stroke="#fff" stroke-width="2.2" stroke-dasharray="6 4"/></g><rect x="90" y="133" width="22" height="17" fill="#fff" stroke="#4A3524" stroke-width="1.3"/><path d="M86 133 L101 121 L116 133 Z" fill="#fff" stroke="#4A3524" stroke-width="1.3"/><rect x="176" y="133" width="22" height="17" fill="#fff" stroke="#4A3524" stroke-width="1.3"/><path d="M172 133 L187 121 L202 133 Z" fill="#fff" stroke="#4A3524" stroke-width="1.3"/><rect x="262" y="133" width="22" height="17" fill="#fff" stroke="#4A3524" stroke-width="1.3"/><path d="M258 133 L273 121 L288 133 Z" fill="#fff" stroke="#4A3524" stroke-width="1.3"/><rect x="348" y="133" width="22" height="17" fill="#fff" stroke="#4A3524" stroke-width="1.3"/><path d="M344 133 L359 121 L374 133 Z" fill="#fff" stroke="#4A3524" stroke-width="1.3"/><rect x="434" y="133" width="22" height="17" fill="#fff" stroke="#4A3524" stroke-width="1.3"/><path d="M430 133 L445 121 L460 133 Z" fill="#fff" stroke="#4A3524" stroke-width="1.3"/><circle cx="262" cy="268" r="10" fill="#B4441F" stroke="#fff" stroke-width="2.4"/><circle cx="262" cy="150" r="9" fill="#E8823C" stroke="#fff" stroke-width="2.4"/><text x="270" y="44" font-family="Fira Sans Extra Condensed, Fira Sans Condensed, Arial, sans-serif" font-size="15" font-weight="700" fill="#7A5C44" text-anchor="middle" >Tall del terreny en el moment d'un terratrèmol</text><text x="270" y="63" font-family="Fira Sans Extra Condensed, Fira Sans Condensed, Arial, sans-serif" font-size="12.5" font-weight="600" fill="#7A5C44" text-anchor="middle" >La ratlla blanca recta és la falla: la fractura on la roca es trenca.</text><line x1="262" y1="150" x2="538" y2="120" stroke="#4A3524" stroke-width="1.4"/><circle cx="262" cy="150" r="12" fill="#4A3524" stroke="#fff" stroke-width="2"/><text x="262" y="154.55" font-family="Fira Sans Extra Condensed, Fira Sans Condensed, Arial, sans-serif" font-size="13" font-weight="800" fill="#fff" text-anchor="middle">1</text><circle cx="550" cy="120" r="13" fill="#4A3524" stroke="#fff" stroke-width="2"/><text x="550" y="124.9" font-family="Fira Sans Extra Condensed, Fira Sans Condensed, Arial, sans-serif" font-size="14" font-weight="800" fill="#fff" text-anchor="middle">1</text><rect x="570" y="106" width="178" height="28" rx="5" fill="#fff" stroke="#CDB79C" stroke-width="1.6" stroke-dasharray="5 3"/><line x1="262" y1="268" x2="538" y2="210" stroke="#4A3524" stroke-width="1.4"/><circle cx="262" cy="268" r="12" fill="#4A3524" stroke="#fff" stroke-width="2"/><text x="262" y="272.55" font-family="Fira Sans Extra Condensed, Fira Sans Condensed, Arial, sans-serif" font-size="13" font-weight="800" fill="#fff" text-anchor="middle">2</text><circle cx="550" cy="210" r="13" fill="#4A3524" stroke="#fff" stroke-width="2"/><text x="550" y="214.9" font-family="Fira Sans Extra Condensed, Fira Sans Condensed, Arial, sans-serif" font-size="14" font-weight="800" fill="#fff" text-anchor="middle">2</text><rect x="570" y="196" width="178" height="28" rx="5" fill="#fff" stroke="#CDB79C" stroke-width="1.6" stroke-dasharray="5 3"/><line x1="400" y1="300" x2="538" y2="300" stroke="#4A3524" stroke-width="1.4"/><circle cx="400" cy="300" r="12" fill="#4A3524" stroke="#fff" stroke-width="2"/><text x="400" y="304.55" font-family="Fira Sans Extra Condensed, Fira Sans Condensed, Arial, sans-serif" font-size="13" font-weight="800" fill="#fff" text-anchor="middle">3</text><circle cx="550" cy="300" r="13" fill="#4A3524" stroke="#fff" stroke-width="2"/><text x="550" y="304.9" font-family="Fira Sans Extra Condensed, Fira Sans Condensed, Arial, sans-serif" font-size="14" font-weight="800" fill="#fff" text-anchor="middle">3</text><rect x="570" y="286" width="178" height="28" rx="5" fill="#fff" stroke="#CDB79C" stroke-width="1.6" stroke-dasharray="5 3"/></svg>